<?xml version="1.0" encoding="UTF-8"?>
<!DOCTYPE svg PUBLIC "-//W3C//DTD SVG 1.1//EN" "http://www.w3.org/Graphics/SVG/1.1/DTD/svg11.dtd">
<svg version="1.1" xmlns="http://www.w3.org/2000/svg" xmlns:xlink="http://www.w3.org/1999/xlink" x="0" y="0" width="512" height="512" viewBox="0, 0, 512, 512">
  <g id="Layer_1">
    <g>
      <path d="M256.984,292.258 C214.878,292.258 177.413,314.428 153.542,348.041 C140.612,340.174 126.024,335.525 109.778,335.525 C61.041,335.525 21.588,378.077 21.588,430.642 L384.96,430.642 C385.623,354.477 327.934,292.258 256.984,292.258 z" fill="#00BAE8"/>
      <path d="M459.226,366.277 C459.557,364.489 459.889,362.344 459.889,360.556 C459.889,352.332 455.579,345.18 449.611,341.247 L399.548,311.21 C416.456,287.967 417.12,255.427 400.542,231.469 L318.319,113.11 C286.491,147.438 273.893,194.639 280.855,239.336 L22.251,82.358 C43.801,165.675 112.431,221.1 188.354,223.96 C191.67,233.257 208.578,281.531 208.578,281.531 C230.46,342.319 284.834,382.368 345.506,382.368 L486.412,382.368 L486.412,382.368 z" fill="#F05138"/>
      <path d="M377.666,382.726 C359.431,330.162 312.352,292.258 257.315,292.258 C243.059,292.258 229.134,294.761 216.536,299.41 C242.064,350.186 291.133,382.726 345.506,382.726 z" fill="#FFFFFF"/>
      <path d="M377.666,382.726 C359.431,330.162 312.352,292.258 257.315,292.258 C243.059,292.258 229.134,294.761 216.536,299.41 C242.064,350.186 291.133,382.726 345.506,382.726 z" fill="#FFFFFF"/>
      <path d="M446.295,360.913 C446.295,364.863 443.327,368.065 439.665,368.065 C436.002,368.065 433.034,364.863 433.034,360.913 C433.034,356.964 436.002,353.762 439.665,353.762 C443.327,353.762 446.295,356.964 446.295,360.913 z" fill="#FFFFFF"/>
    </g>
  </g>
</svg>
